<mxfile host="app.diagrams.net" modified="2024-04-13T14:33:28.802Z" agent="Mozilla/5.0 (Macintosh; Intel Mac OS X 10_15_7) AppleWebKit/537.36 (KHTML, like Gecko) Chrome/123.0.0.0 Safari/537.36" etag="Yz4JNXzsxil1QPbSdS7y" version="24.2.5" type="device">
  <diagram name="페이지-1" id="jmEi_aJcn82925WeZX_v">
    <mxGraphModel dx="-4" dy="1681" grid="1" gridSize="10" guides="1" tooltips="1" connect="1" arrows="1" fold="1" page="1" pageScale="1" pageWidth="827" pageHeight="1169" math="0" shadow="0">
      <root>
        <mxCell id="0" />
        <mxCell id="1" parent="0" />
        <mxCell id="qkpx6r0DoK9DZIVo4au_-10" style="edgeStyle=orthogonalEdgeStyle;rounded=0;orthogonalLoop=1;jettySize=auto;html=1;exitX=1;exitY=0.5;exitDx=0;exitDy=0;entryX=0;entryY=0.5;entryDx=0;entryDy=0;startArrow=classic;startFill=1;" edge="1" parent="1" source="qkpx6r0DoK9DZIVo4au_-3" target="qkpx6r0DoK9DZIVo4au_-4">
          <mxGeometry relative="1" as="geometry" />
        </mxCell>
        <mxCell id="qkpx6r0DoK9DZIVo4au_-3" value="Client" style="shape=image;verticalLabelPosition=bottom;labelBackgroundColor=default;verticalAlign=top;aspect=fixed;imageAspect=0;image=https://upload.wikimedia.org/wikipedia/commons/thumb/a/a7/React-icon.svg/2300px-React-icon.svg.png;" vertex="1" parent="1">
          <mxGeometry x="910" y="-895.6199999999999" width="121.62" height="105.71" as="geometry" />
        </mxCell>
        <mxCell id="qkpx6r0DoK9DZIVo4au_-11" value="upload/ download" style="edgeStyle=orthogonalEdgeStyle;rounded=0;orthogonalLoop=1;jettySize=auto;html=1;exitX=1;exitY=0.5;exitDx=0;exitDy=0;entryX=0;entryY=0.5;entryDx=0;entryDy=0;startArrow=classic;startFill=1;" edge="1" parent="1" source="qkpx6r0DoK9DZIVo4au_-4" target="qkpx6r0DoK9DZIVo4au_-5">
          <mxGeometry relative="1" as="geometry" />
        </mxCell>
        <mxCell id="qkpx6r0DoK9DZIVo4au_-12" value="file mapping data" style="edgeStyle=orthogonalEdgeStyle;rounded=0;orthogonalLoop=1;jettySize=auto;html=1;entryX=0.5;entryY=0;entryDx=0;entryDy=0;startArrow=classic;startFill=1;" edge="1" parent="1" source="qkpx6r0DoK9DZIVo4au_-4" target="qkpx6r0DoK9DZIVo4au_-8">
          <mxGeometry relative="1" as="geometry" />
        </mxCell>
        <mxCell id="qkpx6r0DoK9DZIVo4au_-4" value="Server" style="shape=image;verticalLabelPosition=bottom;labelBackgroundColor=default;verticalAlign=top;aspect=fixed;imageAspect=0;image=https://upload.wikimedia.org/wikipedia/commons/thumb/d/d9/Node.js_logo.svg/2560px-Node.js_logo.svg.png;" vertex="1" parent="1">
          <mxGeometry x="1130" y="-897.81" width="180" height="110.1" as="geometry" />
        </mxCell>
        <mxCell id="qkpx6r0DoK9DZIVo4au_-5" value="File Server" style="shape=image;verticalLabelPosition=bottom;labelBackgroundColor=default;verticalAlign=top;aspect=fixed;imageAspect=0;image=https://upload.wikimedia.org/wikipedia/commons/thumb/d/d9/Node.js_logo.svg/2560px-Node.js_logo.svg.png;" vertex="1" parent="1">
          <mxGeometry x="1440" y="-897.81" width="180" height="110.1" as="geometry" />
        </mxCell>
        <mxCell id="qkpx6r0DoK9DZIVo4au_-8" value="PostgreSQL DB" style="shape=image;verticalLabelPosition=bottom;labelBackgroundColor=default;verticalAlign=top;aspect=fixed;imageAspect=0;image=https://upload.wikimedia.org/wikipedia/commons/thumb/2/29/Postgresql_elephant.svg/993px-Postgresql_elephant.svg.png;" vertex="1" parent="1">
          <mxGeometry x="1163.65" y="-701" width="112.7" height="116.22" as="geometry" />
        </mxCell>
      </root>
    </mxGraphModel>
  </diagram>
</mxfile>
